<?xml version="1.0" standalone="no"?>
<!DOCTYPE svg PUBLIC "-//W3C//DTD SVG 20010904//EN"
 "http://www.w3.org/TR/2001/REC-SVG-20010904/DTD/svg10.dtd">
<svg version="1.0" xmlns="http://www.w3.org/2000/svg"
 width="900.000000pt" height="900.000000pt" viewBox="0 0 900.000000 900.000000"
 preserveAspectRatio="xMidYMid meet">
<metadata>
Created by potrace 1.10, written by Peter Selinger 2001-2011
</metadata>
<g transform="translate(0.000000,900.000000) scale(0.100000,-0.100000)"
fill="#0000ff" stroke="none">
<path d="M4135 8984 c-8 -12 -39 -17 -135 -24 -69 -4 -138 -13 -153 -19 -16
-6 -50 -11 -76 -11 -27 0 -68 -7 -91 -15 -23 -8 -58 -15 -77 -15 -18 0 -50 -7
-70 -15 -19 -8 -48 -15 -64 -15 -15 0 -40 -5 -56 -11 -15 -7 -46 -15 -68 -19
-22 -4 -53 -13 -70 -18 -16 -6 -57 -19 -90 -28 -33 -10 -67 -24 -76 -31 -8 -7
-30 -13 -47 -13 -17 0 -46 -6 -64 -14 -18 -8 -51 -21 -73 -29 -292 -109 -536
-231 -864 -432 -57 -35 -243 -167 -325 -230 -283 -219 -599 -538 -807 -815
-60 -80 -112 -149 -117 -155 -15 -19 -132 -196 -132 -200 0 -2 -12 -23 -27
-47 -44 -68 -52 -82 -63 -103 -6 -11 -26 -47 -45 -80 -18 -33 -43 -80 -56
-105 -32 -66 -109 -230 -124 -265 -7 -16 -20 -46 -28 -65 -8 -19 -20 -46 -26
-60 -6 -14 -15 -38 -20 -55 -5 -16 -21 -61 -35 -99 -14 -38 -26 -79 -26 -91 0
-13 -7 -28 -15 -35 -8 -7 -15 -19 -15 -27 0 -9 -7 -36 -14 -62 -8 -25 -22 -73
-31 -106 -9 -33 -21 -75 -26 -92 -6 -18 -14 -54 -18 -80 -5 -27 -13 -68 -19
-93 -30 -122 -62 -331 -79 -505 -11 -118 -8 -732 4 -865 6 -63 16 -146 22
-185 37 -225 44 -263 53 -290 5 -16 14 -55 18 -85 5 -30 19 -86 30 -125 12
-38 25 -88 30 -110 5 -22 18 -67 30 -100 12 -33 25 -73 30 -90 21 -73 72 -211
81 -220 5 -5 9 -15 9 -23 0 -8 7 -30 16 -50 32 -74 102 -223 123 -262 4 -8 20
-39 35 -69 41 -84 94 -179 147 -266 66 -107 67 -109 118 -184 102 -151 143
-210 164 -233 12 -14 38 -45 56 -69 83 -105 224 -263 336 -373 202 -199 532
-476 568 -476 8 0 22 -10 33 -21 22 -25 225 -162 274 -185 8 -4 31 -17 50 -29
51 -32 166 -94 240 -130 81 -40 158 -75 288 -131 20 -9 49 -23 64 -30 14 -8
33 -14 42 -14 15 0 68 -21 118 -46 14 -8 37 -14 50 -14 12 0 32 -7 42 -15 11
-8 29 -15 40 -15 11 0 38 -6 61 -14 37 -13 69 -22 205 -59 30 -9 89 -22 130
-31 41 -8 98 -20 125 -26 28 -6 82 -15 122 -20 40 -5 78 -12 85 -16 62 -38
1237 -37 1300 2 6 4 41 11 77 15 69 8 146 22 221 41 25 6 63 14 85 18 77 14
312 80 365 102 14 6 39 14 55 19 32 8 106 34 140 48 11 4 37 16 58 25 21 9 44
16 51 16 8 0 19 7 26 15 7 8 20 15 30 15 10 0 53 17 96 38 44 22 115 56 159
77 44 22 103 52 130 69 28 16 79 45 115 64 36 18 96 55 133 80 38 26 76 52 85
57 295 185 663 507 928 815 91 106 286 361 336 441 16 24 46 71 68 104 22 33
44 70 49 82 5 11 15 24 20 28 6 3 11 13 11 22 0 9 6 24 14 32 7 9 28 43 46 76
57 102 180 356 180 370 0 4 12 33 26 64 15 30 30 67 35 81 4 14 17 50 29 80
28 73 51 144 88 265 58 192 62 207 62 232 0 13 4 32 10 42 9 18 20 69 40 191
6 36 18 95 26 131 8 37 14 88 14 115 0 71 21 179 31 163 5 -8 9 172 9 418 0
329 -3 432 -12 430 -14 -3 -27 57 -27 132 -1 70 -31 244 -77 451 -16 72 -29
121 -69 255 -15 50 -31 108 -36 130 -6 22 -14 44 -20 49 -5 6 -9 18 -9 28 0 9
-6 32 -14 50 -8 18 -21 51 -29 73 -46 121 -151 362 -186 425 -5 8 -18 33 -29
55 -11 22 -29 56 -41 75 -11 19 -27 49 -35 65 -18 36 -54 99 -81 140 -89 140
-148 225 -156 225 -5 0 -15 15 -23 33 -11 26 -129 186 -193 262 -10 11 -42 49
-72 85 -120 142 -241 260 -541 524 -42 37 -261 199 -335 247 -158 103 -213
138 -280 174 -38 21 -83 46 -100 56 -16 10 -50 28 -75 39 -52 25 -94 46 -130
65 -14 7 -56 27 -95 45 -38 17 -83 38 -98 46 -16 8 -35 14 -42 14 -7 0 -26 6
-42 14 -56 28 -104 46 -121 46 -10 0 -27 7 -38 15 -10 8 -30 15 -42 15 -13 0
-36 6 -50 14 -29 14 -88 33 -192 61 -36 10 -85 24 -109 31 -25 8 -56 14 -69
14 -13 0 -45 7 -71 14 -68 22 -191 46 -231 46 -19 1 -62 7 -95 15 -33 8 -96
15 -140 16 -90 1 -131 10 -127 27 1 9 -90 12 -361 12 -319 0 -363 -2 -372 -16z
m566 -625 c13 -6 18 -17 15 -26 -3 -8 -10 -150 -16 -314 -5 -170 -14 -308 -20
-319 -8 -16 -21 -20 -58 -20 -27 0 -53 5 -60 12 -16 16 -15 89 3 333 8 110 15
230 15 266 0 36 3 69 7 72 10 11 92 8 114 -4z m-386 -19 c57 -35 74 -88 85
-273 5 -90 13 -177 16 -195 9 -44 -13 -115 -45 -145 -39 -37 -120 -57 -233
-57 l-98 0 0 48 c0 26 -6 103 -14 172 -8 69 -20 199 -26 289 -10 136 -10 165
1 172 8 5 74 9 148 9 117 0 138 -3 166 -20z m848 -26 c18 -9 40 -24 50 -33 41
-35 60 -129 34 -164 -11 -16 -18 -16 -65 -6 -51 12 -52 13 -52 50 0 28 -5 41
-19 49 -50 26 -83 3 -85 -59 -1 -41 11 -60 99 -171 57 -70 73 -108 73 -165 0
-56 -18 -100 -57 -141 -36 -36 -53 -40 -150 -35 -101 5 -171 73 -171 163 0 71
5 78 59 78 58 0 71 -12 71 -67 0 -37 4 -44 31 -58 28 -15 33 -15 55 0 19 12
24 24 24 58 0 47 -8 61 -86 154 -57 67 -94 140 -94 184 0 47 30 112 68 147 33
30 40 32 109 32 48 0 85 -6 106 -16z m-2711 -76 c-7 -7 -12 -20 -12 -30 0 -23
54 -25 76 -3 9 8 26 15 40 15 13 0 24 5 24 10 0 6 9 10 20 10 11 0 20 -4 20
-10 0 -5 -9 -10 -19 -10 -10 0 -21 -7 -25 -15 -3 -8 -14 -15 -25 -15 -11 0
-23 -5 -26 -11 -4 -5 -17 -15 -28 -20 -12 -5 -35 -18 -52 -29 -16 -11 -37 -23
-45 -27 -8 -4 -26 -14 -40 -24 -14 -9 -63 -41 -110 -72 -395 -254 -806 -645
-1100 -1042 -111 -150 -143 -200 -300 -465 -34 -57 -175 -352 -210 -440 -12
-30 -26 -64 -32 -74 -6 -11 -14 -31 -19 -45 -4 -14 -24 -71 -44 -126 -20 -55
-40 -113 -45 -130 -4 -16 -15 -56 -23 -87 -9 -31 -20 -66 -26 -77 -6 -11 -11
-32 -11 -48 0 -15 -7 -41 -15 -57 -8 -16 -18 -47 -21 -70 -4 -22 -12 -48 -19
-56 -6 -8 -15 -23 -19 -34 -5 -14 -9 -16 -20 -7 -10 8 -16 9 -21 1 -3 -5 -10
-10 -16 -10 -11 0 -12 147 0 154 4 3 11 33 14 66 3 33 9 66 15 73 5 7 12 32
15 57 3 25 16 77 27 115 12 39 25 86 30 105 8 37 25 84 45 135 7 17 21 55 30
85 10 30 24 64 32 75 7 11 13 25 13 33 0 7 25 65 55 128 30 64 55 118 55 121
0 2 15 31 34 63 19 31 37 71 40 88 4 16 16 38 27 48 10 9 29 38 42 63 12 25
38 69 58 96 20 28 48 70 63 95 46 77 50 83 94 142 23 31 42 60 42 65 0 4 19
28 43 53 23 25 60 68 82 95 46 58 153 181 245 280 73 79 216 208 365 328 55
45 106 87 112 93 7 7 45 34 84 61 100 68 110 74 168 108 28 17 51 33 51 38 0
4 9 7 19 7 11 0 23 5 26 11 4 5 17 15 28 20 34 15 68 36 80 48 6 6 21 11 33
11 12 0 24 7 28 15 3 8 12 15 21 15 8 0 15 5 15 10 0 6 5 10 12 10 9 0 9 -3 0
-12z m1058 -38 c10 -25 25 -72 34 -105 10 -33 22 -73 27 -90 16 -46 39 -126
49 -165 8 -36 19 -69 41 -130 7 -19 13 -55 13 -79 l1 -44 -50 -12 c-27 -7 -52
-12 -56 -10 -3 2 -14 30 -23 62 -10 32 -24 76 -31 98 -7 22 -21 67 -30 100 -9
33 -22 78 -29 100 -7 22 -21 67 -31 100 -9 33 -24 79 -32 102 -8 23 -13 57
-11 75 3 29 7 34 38 39 63 12 72 7 90 -41z m2919 23 c17 -10 31 -21 31 -25 0
-15 -41 -8 -46 7 -4 8 -14 15 -24 15 -11 0 -22 5 -25 10 -10 16 31 11 64 -7z
m157 -8 c4 -8 16 -15 29 -15 12 0 28 -7 35 -15 7 -8 20 -15 30 -15 10 0 20 -7
24 -15 3 -8 17 -15 31 -15 14 0 25 -4 25 -9 0 -5 20 -20 45 -32 24 -12 57 -35
72 -51 15 -15 33 -28 40 -28 12 0 146 -92 209 -144 18 -14 36 -26 41 -26 5 0
20 -12 33 -27 14 -16 59 -55 100 -88 98 -78 373 -352 486 -485 114 -133 136
-163 219 -285 37 -55 71 -101 76 -103 5 -2 9 -8 9 -14 0 -6 14 -30 30 -55 17
-24 30 -48 30 -52 0 -5 13 -24 30 -42 16 -19 32 -44 35 -57 3 -12 23 -52 45
-87 22 -36 55 -96 75 -134 19 -38 39 -72 45 -76 5 -3 10 -15 10 -26 0 -10 12
-43 26 -72 29 -59 83 -199 91 -237 3 -14 10 -31 16 -38 13 -17 46 -112 47
-134 0 -10 6 -32 14 -50 23 -57 38 -102 46 -143 4 -22 15 -71 24 -110 9 -38
21 -99 27 -135 5 -36 14 -87 19 -113 7 -31 7 -55 0 -65 -7 -14 -10 -11 -16 16
-8 39 -28 41 -48 5 l-14 -28 -6 25 c-2 14 -7 36 -10 50 -2 14 -11 45 -19 70
-8 25 -22 72 -31 105 -25 91 -47 163 -73 240 -14 39 -28 84 -33 100 -10 36
-37 112 -49 140 -5 11 -19 45 -31 75 -35 88 -66 155 -147 320 -104 211 -172
326 -358 595 -135 197 -442 532 -645 705 -47 40 -87 76 -90 79 -11 15 -329
250 -400 295 -41 27 -86 56 -100 65 -14 10 -32 20 -40 24 -8 4 -28 16 -45 27
-16 11 -40 24 -52 30 -32 13 -29 30 6 30 20 0 30 6 34 20 6 24 45 27 53 5z
m-920 -21 c126 -43 172 -130 127 -241 -15 -36 -22 -43 -46 -43 -33 0 -87 26
-87 42 0 6 5 26 11 43 23 62 -9 105 -65 91 -20 -5 -51 -63 -69 -131 -3 -11
-22 -65 -43 -120 -20 -55 -39 -121 -41 -146 -4 -44 -3 -46 27 -59 28 -12 33
-11 56 10 13 13 29 40 34 61 16 57 32 65 83 44 58 -26 58 -25 41 -74 -22 -64
-39 -93 -73 -126 -30 -27 -37 -29 -104 -28 -96 1 -166 40 -195 106 -19 44 -15
77 24 188 19 57 38 113 41 124 3 11 11 34 19 52 8 17 14 39 14 50 1 34 55 117
95 145 46 32 82 34 151 12z m-2457 -58 c31 -50 27 -63 -29 -87 -29 -12 -50
-28 -50 -37 0 -8 16 -48 35 -89 19 -41 35 -79 35 -86 0 -7 4 -17 9 -22 5 -6
19 -35 31 -65 26 -62 46 -109 86 -194 26 -57 26 -60 8 -73 -10 -7 -36 -19 -57
-25 -31 -9 -40 -9 -51 3 -8 8 -46 90 -86 183 -40 93 -76 177 -80 185 -5 9 -19
43 -33 76 -26 66 -49 79 -89 51 -37 -26 -62 -20 -81 19 -23 49 -22 53 21 71
75 32 98 42 137 57 22 9 69 27 105 41 36 14 66 26 67 26 1 0 11 -15 22 -34z
m2927 -132 c27 -15 70 -37 96 -51 67 -35 118 -94 118 -137 0 -33 -58 -155 -88
-186 -8 -8 -29 -20 -46 -26 -30 -10 -31 -13 -31 -70 0 -35 -7 -71 -16 -89 -9
-16 -31 -59 -49 -95 -48 -94 -46 -93 -88 -70 -82 42 -81 34 -22 148 57 110 59
133 16 164 -41 29 -40 30 -143 -164 -14 -27 -31 -48 -37 -48 -21 0 -94 39 -99
52 -4 12 23 67 107 223 18 33 50 92 71 130 124 230 133 245 149 245 7 0 35
-12 62 -26z m-3414 -166 c24 -38 50 -80 58 -93 49 -77 106 -168 115 -183 6 -9
29 -45 53 -80 23 -35 42 -67 42 -71 0 -5 7 -14 15 -21 27 -23 16 -45 -36 -73
-57 -30 -63 -29 -119 24 -13 13 -60 55 -103 92 -44 37 -85 73 -92 80 -49 48
-85 69 -85 51 0 -3 27 -46 60 -96 33 -49 60 -91 60 -94 0 -2 20 -33 45 -70 25
-36 45 -73 45 -82 0 -19 -77 -65 -92 -56 -8 5 -61 83 -93 136 -17 28 -93 148
-145 228 -86 132 -120 191 -120 208 0 17 99 82 123 82 7 0 32 -19 57 -43 88
-84 187 -167 198 -167 13 0 17 26 5 32 -9 3 -53 64 -53 72 0 3 -22 38 -49 77
-27 39 -47 79 -44 88 2 9 21 26 41 38 45 26 52 22 114 -79z m3912 -118 c35
-23 46 -35 42 -47 -4 -9 -38 -60 -77 -112 -38 -53 -110 -152 -159 -221 -49
-69 -103 -144 -120 -167 -17 -24 -36 -43 -43 -43 -19 1 -92 55 -92 69 0 13 17
38 145 215 41 57 113 156 159 220 46 64 86 116 90 116 4 0 29 -14 55 -30z
m309 -221 c31 -28 57 -56 57 -63 0 -7 -51 -90 -114 -184 -63 -95 -110 -174
-106 -177 5 -3 83 51 175 120 92 69 172 125 178 125 18 -1 117 -93 117 -109 0
-8 -37 -53 -82 -100 -402 -418 -378 -394 -404 -381 -40 22 -67 56 -57 74 5 9
55 62 111 119 56 57 102 107 102 110 0 18 -30 0 -138 -81 -64 -49 -123 -92
-130 -96 -15 -9 -87 37 -96 61 -4 9 25 62 74 135 44 65 80 121 80 124 0 3 7
12 15 21 8 8 12 20 8 26 -4 6 -54 -39 -122 -111 -64 -67 -122 -122 -128 -122
-18 0 -73 50 -73 66 0 7 58 73 128 146 71 73 175 181 232 241 57 59 106 107
110 107 3 0 32 -23 63 -51z m-4793 -39 c47 -36 94 -72 105 -82 51 -42 292
-232 312 -245 32 -21 29 -46 -11 -77 -44 -33 -55 -33 -101 4 -21 17 -43 30
-49 30 -6 0 -33 -20 -59 -44 l-48 -45 30 -42 c17 -23 31 -48 31 -55 0 -7 -17
-26 -39 -43 l-38 -30 -20 22 c-11 12 -23 29 -27 37 -3 8 -14 27 -24 42 -22 34
-100 158 -132 212 -55 90 -87 141 -128 204 -31 48 -41 71 -34 82 17 28 125
109 136 103 6 -4 49 -37 96 -73z m2568 -41 c12 -5 22 -17 22 -28 0 -28 13 -33
110 -47 47 -7 119 -20 160 -29 41 -9 104 -21 140 -28 36 -7 70 -15 75 -19 6
-3 31 -9 58 -13 26 -4 50 -11 53 -16 3 -5 15 -9 27 -9 12 -1 40 -9 62 -20 22
-11 50 -19 62 -20 12 0 25 -4 28 -10 3 -5 13 -10 21 -10 8 0 34 -8 57 -19 23
-10 57 -24 76 -32 19 -8 78 -36 130 -63 53 -27 110 -56 126 -64 17 -9 32 -18
35 -21 3 -3 25 -17 49 -30 51 -27 128 -80 244 -169 45 -34 95 -73 112 -85 62
-46 314 -306 380 -392 39 -49 73 -94 78 -100 121 -151 312 -502 363 -667 24
-79 45 -140 55 -163 10 -22 23 -76 45 -180 9 -38 22 -101 30 -140 16 -72 27
-142 45 -280 22 -169 -4 -659 -40 -748 -6 -16 -11 -45 -11 -65 0 -20 -7 -46
-15 -56 -8 -11 -15 -40 -15 -65 -1 -25 -7 -57 -15 -71 -8 -14 -15 -41 -15 -60
0 -19 -7 -44 -15 -54 -8 -11 -15 -31 -15 -45 0 -14 -7 -35 -15 -45 -8 -11 -15
-30 -15 -42 0 -13 -4 -25 -9 -28 -5 -3 -12 -18 -15 -33 -4 -16 -13 -41 -20
-58 -22 -48 -44 -99 -50 -115 -3 -8 -10 -23 -16 -32 -21 -37 -30 -55 -55 -103
-15 -27 -35 -63 -45 -80 -11 -16 -23 -37 -27 -45 -20 -42 -233 -335 -259 -356
-8 -6 -14 -15 -14 -19 0 -8 -266 -273 -315 -314 -16 -13 -45 -35 -64 -48 -20
-13 -38 -27 -41 -31 -9 -12 -87 -72 -95 -72 -3 0 -33 -20 -65 -45 -32 -25 -61
-45 -64 -45 -4 0 -24 -11 -46 -25 -46 -29 -137 -79 -225 -123 -170 -85 -472
-188 -625 -212 -43 -7 -81 -15 -180 -40 -25 -6 -85 -15 -135 -20 -86 -9 -145
-25 -145 -39 0 -4 14 -12 31 -18 39 -15 36 -43 -6 -56 -45 -13 -347 -12 -373
2 -26 14 -28 33 -7 51 33 28 16 38 -87 50 -186 22 -526 94 -651 139 -29 10
-77 26 -107 36 -30 9 -83 30 -118 46 -35 16 -67 29 -70 29 -15 0 -237 119
-344 185 -180 110 -496 372 -603 500 -22 26 -48 57 -59 69 -107 121 -320 441
-376 564 -5 13 -21 49 -35 80 -15 31 -32 71 -40 87 -8 17 -17 42 -21 58 -3 15
-10 30 -15 33 -5 3 -9 14 -9 26 0 11 -6 34 -14 51 -8 18 -16 41 -20 52 -3 11
-15 52 -26 90 -12 39 -25 93 -29 120 -5 28 -13 70 -19 95 -59 242 -84 529 -62
735 7 66 16 152 20 190 4 39 12 91 18 118 28 115 35 145 43 192 5 28 18 82 29
120 12 39 25 84 30 100 11 38 29 91 47 132 7 17 13 36 13 41 0 6 7 23 15 39 8
15 25 53 38 83 29 64 74 159 87 180 5 8 37 62 72 120 34 58 66 110 70 115 5 6
45 60 90 120 97 130 127 165 273 310 120 121 193 187 241 220 16 11 50 36 75
55 24 19 52 40 61 45 9 6 40 26 70 46 29 20 71 46 92 57 22 12 42 25 45 29 6
8 235 123 301 151 19 8 47 21 62 29 14 7 35 13 45 13 11 0 28 7 39 15 10 8 29
15 41 15 12 0 34 6 50 14 43 21 202 63 289 76 28 4 61 13 72 19 11 6 36 11 54
11 18 0 55 7 82 15 27 8 71 15 98 15 63 0 116 22 128 54 5 14 20 28 32 31 67
15 331 11 376 -6z m2742 -429 c18 -22 30 -47 27 -54 -3 -8 -68 -62 -144 -120
-76 -58 -193 -148 -261 -201 -133 -104 -137 -105 -181 -49 -37 47 -58 26 319
317 80 61 154 119 164 129 29 26 41 23 76 -22z m-5840 -61 c31 -24 30 -40 -5
-83 -23 -29 -25 -29 -63 -17 -48 16 -80 7 -88 -25 -9 -37 2 -53 50 -74 37 -17
51 -18 92 -10 212 44 283 34 361 -49 74 -81 44 -203 -69 -274 -42 -26 -120
-22 -169 8 -53 34 -57 48 -25 90 29 37 56 44 76 20 15 -18 71 -20 88 -3 7 7
12 26 12 43 0 61 -97 83 -220 50 -122 -33 -223 -8 -289 72 -26 32 -31 46 -31
90 0 77 58 162 126 183 42 13 122 2 154 -21z m6049 -198 c17 -21 35 -51 41
-66 11 -29 22 -15 -187 -243 -22 -23 -29 -42 -18 -42 12 0 93 49 212 127 62
41 83 38 112 -17 l20 -39 -52 -33 c-29 -18 -59 -36 -67 -41 -8 -4 -28 -16 -45
-27 -16 -11 -39 -24 -50 -30 -11 -6 -33 -19 -50 -30 -16 -11 -39 -24 -50 -30
-11 -6 -33 -19 -50 -30 -16 -11 -39 -24 -50 -30 -11 -6 -33 -19 -50 -30 -16
-11 -37 -23 -45 -27 -8 -3 -26 -15 -39 -25 -13 -10 -32 -18 -42 -18 -21 0 -69
69 -69 97 0 10 31 50 69 90 118 125 201 220 201 232 0 14 -13 14 -27 0 -6 -6
-21 -16 -32 -23 -11 -6 -82 -49 -158 -94 l-138 -84 -32 38 c-23 28 -29 42 -22
55 4 9 86 63 180 120 94 57 183 112 197 121 15 9 45 26 67 38 22 12 58 34 80
50 22 16 45 29 52 29 6 1 25 -16 42 -38z m-6447 -205 c40 -22 219 -115 438
-228 52 -27 103 -56 112 -65 16 -15 17 -18 3 -33 -8 -9 -15 -21 -15 -26 0 -5
-11 -21 -24 -35 -24 -26 -26 -26 -78 -14 -29 7 -84 20 -123 28 -38 8 -105 23
-148 33 -137 31 -116 6 77 -91 96 -48 177 -94 180 -102 8 -19 -33 -93 -51 -93
-8 0 -42 16 -77 35 -73 40 -311 164 -443 232 -75 37 -93 51 -93 69 0 12 7 27
15 34 8 7 15 18 15 24 1 6 9 21 19 34 23 26 57 28 139 8 173 -44 218 -51 226
-37 4 6 1 13 -6 15 -22 7 -42 15 -58 25 -15 9 -76 40 -167 86 -29 14 -53 30
-53 36 0 15 31 73 44 81 16 11 21 10 68 -16z m6815 -426 c18 -36 33 -74 33
-84 0 -19 -19 -39 -55 -56 -11 -6 -54 -32 -95 -59 -41 -28 -106 -69 -143 -93
-38 -24 -79 -50 -92 -58 -13 -8 -55 -35 -94 -59 -39 -24 -74 -47 -77 -52 -3
-5 -14 -9 -24 -9 -18 0 -60 70 -60 101 0 8 20 25 45 39 52 28 55 43 24 108
-26 53 -35 57 -82 37 -52 -22 -63 -19 -87 21 -27 47 -23 78 10 82 14 2 48 9
75 16 28 8 86 21 130 31 79 16 132 29 252 59 35 9 73 16 85 17 13 0 39 6 58
13 19 8 42 13 50 12 8 0 30 -30 47 -66z m-7092 -97 c38 -18 43 -36 21 -80 -39
-78 -49 -112 -36 -128 7 -8 21 -15 32 -15 10 0 31 -6 46 -14 15 -7 39 -16 54
-20 25 -6 29 -2 48 40 11 26 20 52 20 59 0 27 27 37 68 25 43 -11 57 -31 42
-59 -19 -36 -39 -106 -32 -112 14 -14 162 -60 172 -54 5 3 14 20 19 38 33 109
45 127 82 127 39 0 69 -16 69 -37 0 -16 -53 -159 -73 -198 -6 -11 -13 -33 -16
-49 -8 -39 -33 -54 -63 -38 -13 7 -36 17 -53 22 -16 5 -75 25 -130 45 -55 20
-113 40 -130 45 -16 5 -75 25 -130 45 -55 20 -114 41 -131 46 -50 15 -59 33
-40 73 9 19 16 40 16 48 0 8 4 18 9 24 5 5 14 25 19 44 31 102 50 139 74 140
4 0 23 -8 43 -17z m7248 -286 c37 -124 50 -163 63 -195 8 -18 14 -48 14 -67 0
-29 -4 -35 -21 -35 -11 0 -29 -4 -39 -10 -15 -8 -23 -5 -39 16 -12 15 -21 37
-21 51 0 34 -23 38 -93 19 -62 -17 -116 -33 -212 -60 -27 -7 -79 -21 -115 -31
-36 -9 -84 -24 -108 -32 -47 -16 -72 -12 -72 12 0 9 -7 30 -16 46 -24 47 -21
49 141 94 28 8 73 20 100 28 57 16 132 37 225 62 36 9 71 19 78 21 15 4 16 45
0 80 -11 23 -10 28 11 45 13 11 37 19 55 19 29 0 32 -3 49 -63z m-7313 -252
c36 -8 101 -21 145 -30 144 -28 219 -44 298 -62 77 -17 77 -17 77 -49 0 -18
-4 -44 -10 -58 -8 -23 -15 -26 -54 -26 -25 0 -57 5 -71 10 -54 20 -165 33
-180 20 -17 -15 -20 -95 -4 -105 6 -4 38 -11 72 -16 92 -13 175 -33 186 -44 6
-6 7 -30 3 -60 l-8 -50 -49 2 c-28 1 -84 9 -125 18 -41 9 -108 23 -147 31
-288 57 -365 74 -377 85 -5 4 -3 30 4 59 l12 52 52 -5 c41 -4 164 -25 226 -39
8 -2 19 16 28 44 18 57 8 75 -47 83 -20 3 -67 12 -106 20 -38 8 -81 16 -95 17
-32 4 -38 40 -16 93 l16 38 53 -7 c28 -3 81 -13 117 -21z m7435 -211 c11 -12
15 -31 13 -68 l-3 -51 -55 -8 c-30 -4 -89 -14 -130 -22 -41 -7 -120 -21 -175
-30 -55 -9 -136 -23 -180 -31 -44 -9 -95 -14 -114 -12 -29 3 -35 8 -48 46 -8
24 -12 49 -10 56 3 7 43 20 89 28 109 22 206 39 243 44 102 15 228 37 280 48
33 8 63 14 67 15 4 0 14 -6 23 -15z m-7631 -324 c24 -9 26 -15 26 -64 0 -30 4
-57 9 -60 4 -3 109 -10 232 -17 123 -6 253 -14 289 -17 l65 -7 0 -60 c0 -59 0
-60 -30 -64 -16 -1 -124 5 -240 14 -116 9 -237 15 -270 13 l-60 -3 -5 -45 c-7
-60 -15 -70 -53 -70 -59 0 -61 5 -59 152 4 237 14 260 96 228z m7625 -10 c59
-30 84 -80 85 -170 1 -82 -17 -120 -72 -152 -31 -19 -306 -48 -447 -48 -101 0
-138 16 -180 78 -33 48 -36 163 -5 214 31 53 70 67 225 82 222 21 348 20 394
-4z m-7003 -454 c3 -13 4 -38 2 -57 -3 -30 -8 -36 -48 -49 -25 -9 -52 -18 -59
-21 -11 -4 -14 -19 -13 -55 4 -78 8 -84 56 -84 54 0 72 -15 80 -66 10 -71 37
-70 -364 -19 -63 9 -133 15 -155 15 -53 0 -184 25 -197 38 -6 6 -11 45 -12 88
l-1 77 80 20 c44 11 103 25 130 32 59 16 135 33 190 44 44 9 101 23 185 44 88
23 119 21 126 -7z m6494 -51 c24 -3 112 -10 195 -16 82 -5 209 -15 280 -22
l130 -12 -3 -60 c-5 -76 -21 -102 -69 -110 -21 -3 -68 -12 -104 -20 -37 -8
-80 -15 -95 -16 -16 0 -38 -4 -49 -8 -19 -8 -19 -8 1 -19 11 -6 81 -16 155
-23 74 -6 137 -15 142 -18 13 -13 -4 -100 -22 -106 -9 -2 -72 2 -141 10 -69 8
-156 15 -195 16 -38 0 -135 8 -215 17 -126 15 -145 19 -144 35 0 9 1 35 2 57
3 55 19 62 242 99 55 10 170 32 188 37 7 2 10 8 7 14 -3 5 -38 10 -78 10 -80
0 -279 19 -317 30 -23 6 -25 11 -22 51 4 53 17 70 46 65 11 -3 41 -7 66 -11z
m867 -705 c7 0 16 14 20 31 4 20 9 27 16 20 6 -6 4 -40 -7 -98 -9 -48 -16
-101 -16 -117 0 -30 -4 -48 -34 -142 -9 -29 -16 -64 -16 -78 0 -15 -7 -43 -15
-63 -8 -19 -15 -41 -15 -49 0 -7 -5 -25 -12 -41 -25 -63 -47 -129 -48 -145 0
-9 -7 -29 -15 -45 -26 -50 -75 -163 -75 -172 0 -5 -14 -42 -31 -82 -29 -70
-37 -88 -73 -156 -8 -16 -18 -35 -21 -43 -3 -8 -19 -37 -36 -65 -16 -27 -37
-63 -45 -80 -17 -35 -30 -58 -60 -100 -11 -16 -23 -37 -26 -45 -3 -8 -40 -66
-82 -128 -42 -63 -76 -117 -76 -120 0 -4 -20 -29 -45 -57 -25 -27 -45 -54 -45
-59 0 -5 -10 -18 -22 -30 -13 -12 -39 -42 -58 -66 -48 -59 -168 -203 -179
-214 -151 -146 -231 -228 -231 -236 0 -5 -9 -11 -20 -15 -10 -3 -34 -20 -52
-38 -19 -18 -58 -50 -87 -72 -30 -22 -61 -48 -70 -57 -8 -10 -21 -18 -28 -18
-7 0 -20 -11 -29 -25 -9 -14 -22 -25 -28 -25 -7 0 -35 -20 -62 -45 -27 -25
-54 -45 -60 -45 -6 0 -21 -9 -34 -20 -13 -11 -28 -20 -34 -20 -6 0 -23 -11
-38 -25 -15 -14 -45 -34 -67 -46 -23 -12 -44 -25 -47 -30 -3 -5 -14 -9 -24 -9
-10 0 -34 -13 -52 -30 -18 -16 -41 -30 -51 -30 -9 0 -20 -7 -24 -16 -4 -11
-13 -13 -33 -9 -22 5 -28 2 -33 -14 -7 -26 -27 -27 -34 -2 -4 15 -15 21 -47
23 -45 3 -56 21 -16 26 14 2 30 9 35 16 6 7 17 15 25 19 8 4 29 16 45 27 17
11 40 25 53 31 12 7 22 16 22 21 0 4 6 8 12 8 23 0 299 193 422 294 209 173
449 407 603 586 99 115 221 277 289 382 96 148 131 204 137 218 4 8 21 38 37
65 29 49 159 307 187 372 39 93 47 110 60 135 7 14 13 34 13 45 0 10 7 27 15
37 8 11 15 28 15 39 0 10 6 31 14 45 7 15 21 54 31 87 9 33 23 76 31 95 7 19
16 51 20 70 3 19 10 40 14 45 4 6 17 51 30 100 12 50 29 100 36 112 8 12 14
37 14 55 0 18 3 44 7 57 6 25 6 25 21 -7 9 -18 22 -32 29 -32z m-8297 16 c0
-7 6 -19 14 -25 7 -6 16 -35 20 -65 3 -29 13 -66 21 -82 8 -16 15 -39 15 -52
0 -13 5 -32 11 -43 6 -11 17 -46 26 -77 8 -31 19 -70 23 -87 5 -16 25 -75 45
-130 20 -55 40 -112 44 -126 5 -14 13 -34 19 -45 5 -10 18 -39 27 -64 59 -149
197 -427 291 -582 91 -150 335 -496 373 -528 4 -3 63 -68 133 -146 109 -120
176 -186 338 -331 14 -12 43 -39 65 -59 59 -53 339 -263 425 -318 41 -27 86
-56 100 -65 14 -10 32 -20 40 -24 8 -4 29 -16 45 -27 17 -11 40 -24 53 -30 12
-5 22 -14 22 -20 0 -5 14 -10 30 -10 20 0 30 -5 30 -15 0 -15 -40 -21 -53 -9
-13 13 -66 12 -71 -2 -7 -19 -45 -18 -52 1 -4 8 -18 15 -33 15 -14 0 -37 10
-51 23 -14 13 -47 34 -75 48 -27 13 -56 30 -63 37 -7 6 -19 12 -25 12 -7 0
-23 10 -37 23 -14 12 -50 38 -80 56 -50 31 -97 64 -174 124 -16 12 -44 33 -62
47 -138 107 -409 364 -524 499 -30 35 -62 71 -70 80 -43 45 -140 160 -140 165
0 8 -67 99 -99 135 -11 13 -21 29 -22 35 0 6 -16 31 -34 56 -66 87 -126 193
-250 435 -48 94 -90 175 -95 180 -4 6 -15 35 -25 65 -9 30 -29 82 -45 115 -38
83 -69 173 -97 290 -14 55 -28 107 -33 115 -4 9 -17 61 -29 115 -12 55 -26
119 -31 143 -12 51 -13 142 -2 142 4 0 13 -5 19 -11 8 -8 13 -5 18 10 7 23 25
29 25 7z m2182 -1708 c28 -24 70 -60 92 -80 l41 -37 -18 -31 c-10 -17 -24 -41
-31 -53 -6 -12 -23 -40 -37 -62 -62 -97 -40 -99 58 -5 105 101 97 97 140 64
21 -15 43 -33 48 -39 6 -6 31 -28 58 -49 26 -20 47 -44 47 -52 0 -8 -28 -48
-62 -90 -35 -42 -76 -93 -93 -114 -71 -89 -150 -186 -160 -196 -5 -6 -32 -39
-60 -73 -27 -33 -56 -61 -63 -61 -21 0 -120 84 -121 102 -1 10 40 66 89 125
50 59 90 111 90 115 0 18 -23 2 -129 -92 -61 -55 -115 -100 -119 -100 -16 1
-82 67 -82 83 0 9 17 45 38 79 64 104 111 195 106 201 -6 6 -104 -108 -157
-180 -43 -61 -58 -62 -117 -13 -80 67 -81 62 22 186 50 60 100 120 112 134 11
13 37 45 56 70 86 112 173 210 187 210 8 0 37 -19 65 -42z m3917 6 c55 -63 56
-69 16 -101 -19 -15 -35 -35 -35 -43 0 -8 17 -33 38 -56 159 -173 312 -355
312 -373 0 -12 -3 -21 -7 -21 -5 0 -32 -23 -61 -50 -29 -28 -59 -50 -66 -50
-8 0 -42 33 -77 73 -35 39 -68 77 -73 82 -6 6 -57 63 -114 128 -59 66 -111
117 -121 117 -10 0 -28 -11 -41 -25 -13 -14 -30 -25 -38 -25 -16 0 -91 79 -92
96 0 14 300 284 316 284 6 0 25 -16 43 -36z m-331 -461 c55 -93 109 -184 121
-203 11 -19 25 -44 31 -55 6 -11 19 -33 30 -50 10 -16 31 -54 47 -83 l28 -54
-30 -24 c-16 -13 -35 -24 -41 -24 -6 0 -17 -6 -23 -14 -6 -8 -23 -16 -38 -19
-26 -5 -26 -5 -173 130 -14 13 -28 23 -32 23 -12 0 -9 -38 3 -45 5 -4 14 -17
20 -28 10 -25 26 -51 52 -86 29 -40 21 -58 -38 -96 -30 -19 -61 -35 -69 -35
-13 0 -66 68 -66 84 0 3 -12 22 -26 43 -14 21 -30 47 -35 58 -5 11 -18 34 -29
50 -11 17 -24 39 -30 50 -5 11 -14 27 -20 35 -44 67 -160 272 -160 283 0 7 20
24 45 36 24 12 47 26 50 32 11 16 56 10 83 -12 15 -11 45 -37 66 -57 48 -45
97 -82 108 -82 4 0 4 8 0 18 -12 28 -94 162 -103 168 -5 3 -9 16 -9 28 0 19
12 30 56 52 30 15 57 32 60 36 12 20 29 -2 122 -159z m-2911 0 c43 -20 109
-68 135 -98 10 -11 24 -40 33 -65 14 -43 14 -49 -5 -103 -11 -32 -25 -66 -29
-75 -5 -9 -40 -79 -77 -156 -76 -155 -113 -201 -176 -211 -129 -22 -281 64
-308 174 -12 49 -1 114 28 167 6 11 39 78 73 149 73 151 92 179 139 211 43 30
130 33 187 7z m2333 -123 c47 -97 45 -123 -13 -134 -19 -4 -42 -15 -52 -26
-15 -17 -16 -21 -2 -47 9 -15 18 -36 21 -45 6 -19 51 -25 61 -8 3 6 21 10 40
10 32 0 34 -2 49 -54 9 -30 16 -56 16 -59 0 -2 -22 -14 -50 -26 -40 -17 -50
-26 -50 -46 0 -13 4 -26 9 -29 5 -3 12 -21 15 -40 8 -42 36 -55 71 -32 13 9
40 16 59 16 33 0 35 -2 52 -56 l18 -57 -23 -18 c-13 -11 -32 -19 -42 -19 -10
0 -33 -6 -51 -14 -18 -8 -53 -22 -78 -31 -25 -9 -61 -24 -80 -32 -32 -14 -35
-13 -51 6 -9 11 -29 58 -43 103 -15 45 -31 87 -35 93 -5 5 -11 21 -14 35 -3
14 -15 50 -27 80 -12 30 -25 69 -29 85 -4 17 -13 39 -19 50 -6 11 -20 47 -31
80 -11 34 -25 73 -32 88 -13 29 0 57 28 57 8 0 29 6 46 13 42 18 93 36 137 49
19 5 39 14 45 19 14 14 47 7 55 -11z m-1956 -55 c28 -8 63 -17 79 -20 26 -5
27 -7 27 -78 0 -39 -7 -99 -15 -132 -17 -70 -19 -141 -5 -150 5 -3 12 7 15 22
4 15 13 45 21 66 8 20 20 54 28 75 8 20 24 62 34 92 19 53 21 55 55 54 62 -2
167 -37 167 -55 0 -9 -13 -47 -29 -85 -91 -216 -121 -290 -121 -296 0 -5 -13
-36 -29 -70 -15 -35 -39 -90 -53 -123 -34 -82 -32 -82 -262 -12 l-68 20 6 41
c4 22 11 106 16 186 6 80 14 177 20 215 5 39 9 102 10 142 0 82 12 123 36 123
10 0 40 -7 68 -15z m1540 -97 c3 -13 7 -48 9 -78 5 -61 20 -162 42 -286 8 -45
15 -101 15 -125 1 -24 7 -71 15 -103 9 -38 11 -65 5 -76 -11 -20 -52 -30 -120
-30 l-47 0 -16 100 c-10 54 -17 116 -17 137 0 21 -3 49 -7 61 -13 52 -23 -8
-23 -148 0 -80 -4 -151 -8 -158 -11 -16 -72 -27 -106 -18 -19 5 -27 16 -35 53
-21 93 -41 157 -51 167 -5 5 -10 20 -10 32 0 31 -10 55 -21 48 -13 -8 -11 -64
5 -136 21 -93 25 -155 12 -173 -7 -10 -36 -18 -80 -22 -83 -7 -96 3 -96 81 -1
28 -5 71 -11 96 -5 25 -13 81 -18 125 -10 88 -25 191 -45 304 -18 102 -18 102
170 116 l80 7 18 -59 c10 -32 24 -76 32 -98 7 -22 14 -50 16 -63 2 -12 8 -24
13 -25 6 -1 11 48 13 129 l3 131 87 15 c48 8 106 16 129 17 37 1 43 -2 47 -21z
m-819 -37 l100 -6 3 -52 c5 -79 -6 -91 -81 -95 l-62 -3 0 -55 0 -55 47 -5 c27
-3 53 -11 58 -16 6 -6 10 -38 8 -70 l-3 -59 -53 -1 c-29 -1 -58 -6 -64 -12 -5
-5 -12 -37 -15 -69 -5 -57 -4 -60 18 -66 13 -4 46 -7 72 -7 l48 0 -3 -72 -3
-73 -70 3 c-38 1 -117 8 -175 15 l-105 12 2 30 c2 46 22 332 34 495 6 80 16
153 21 164 9 16 17 17 66 11 32 -4 102 -10 157 -14z m-1843 -516 c0 -5 -5 -11
-11 -13 -6 -2 -11 4 -11 13 0 9 5 15 11 13 6 -2 11 -8 11 -13z m3808 -45 c0
-5 -9 -10 -21 -10 -11 0 -17 5 -14 10 3 6 13 10 21 10 8 0 14 -4 14 -10z"/>
<path d="M4140 8245 c-10 -12 -9 -46 4 -167 9 -84 17 -182 19 -218 l2 -65 43
-3 c24 -2 50 2 58 9 19 16 18 116 -4 292 -14 113 -21 141 -37 153 -25 18 -69
18 -85 -1z"/>
<path d="M6127 7869 c-9 -6 -17 -14 -17 -19 0 -5 -13 -32 -30 -60 -35 -59 -37
-78 -12 -96 24 -19 60 -17 81 4 27 26 63 109 57 130 -9 27 -58 52 -79 41z"/>
<path d="M2100 7330 c0 -11 139 -230 147 -230 14 0 63 46 63 59 0 9 -31 41
-68 72 -103 85 -142 112 -142 99z"/>
<path d="M4255 7281 c-110 -11 -244 -30 -280 -41 -16 -4 -52 -11 -80 -15 -27
-4 -54 -10 -60 -15 -5 -4 -28 -11 -50 -14 -46 -9 -133 -34 -155 -45 -9 -5 -30
-12 -49 -16 -18 -4 -44 -13 -59 -21 -15 -8 -33 -14 -40 -14 -7 0 -20 -4 -30
-10 -9 -5 -35 -17 -57 -26 -66 -27 -190 -88 -195 -95 -3 -4 -18 -11 -33 -14
-15 -4 -27 -11 -27 -15 0 -4 -12 -13 -27 -20 -47 -19 -73 -34 -73 -42 0 -5 -6
-8 -14 -8 -8 0 -21 -6 -28 -12 -7 -7 -40 -31 -73 -53 -195 -130 -446 -358
-580 -525 -33 -41 -65 -81 -72 -87 -6 -7 -33 -45 -59 -85 -26 -40 -51 -75 -54
-78 -27 -22 -193 -331 -244 -455 -9 -22 -21 -48 -26 -57 -6 -10 -10 -23 -10
-30 0 -7 -6 -25 -14 -40 -8 -15 -17 -41 -21 -59 -4 -19 -11 -40 -16 -49 -12
-24 -36 -111 -44 -160 -4 -25 -11 -49 -15 -55 -8 -11 -23 -91 -40 -215 -6 -41
-15 -100 -20 -131 -13 -71 -13 -488 0 -576 24 -169 30 -212 40 -268 6 -33 15
-67 20 -76 4 -9 12 -38 15 -65 4 -27 11 -53 15 -59 5 -5 11 -28 15 -50 4 -22
11 -44 15 -50 4 -5 11 -25 15 -43 4 -18 13 -45 21 -60 8 -15 14 -33 14 -40 0
-7 4 -20 10 -30 5 -9 17 -35 26 -57 101 -244 268 -513 453 -734 76 -90 251
-262 335 -329 39 -31 73 -60 76 -63 3 -3 30 -23 60 -44 30 -21 69 -48 85 -60
41 -31 270 -165 325 -192 98 -46 159 -72 240 -103 155 -58 156 -59 323 -104
408 -111 976 -107 1397 8 131 36 197 57 257 83 17 7 36 13 41 13 6 0 23 6 39
14 15 8 46 22 68 31 131 54 311 155 479 267 117 80 266 206 396 337 107 109
161 171 249 291 39 52 74 100 79 105 42 51 187 314 237 430 9 22 25 58 35 80
10 22 26 65 36 95 9 30 20 60 24 65 4 6 11 27 14 49 4 21 11 46 16 55 26 49
83 334 100 501 12 119 12 467 0 580 -16 145 -53 342 -85 450 -9 30 -21 73 -26
95 -5 22 -16 54 -24 72 -8 17 -15 37 -15 45 0 8 -4 18 -8 24 -4 5 -18 36 -31
69 -50 132 -230 472 -275 521 -6 6 -18 22 -26 34 -141 212 -399 480 -615 638
-38 29 -75 55 -80 59 -45 34 -105 73 -111 73 -4 0 -15 6 -23 14 -26 23 -278
155 -352 185 -19 7 -47 20 -63 27 -16 8 -34 14 -40 14 -6 0 -23 6 -37 14 -23
12 -94 35 -204 66 -16 5 -53 16 -80 24 -58 17 -138 33 -240 47 -38 5 -90 14
-115 20 -56 13 -467 20 -575 10z m-157 -1663 l2 -857 -367 -364 c-203 -200
-503 -497 -668 -661 -223 -221 -304 -294 -314 -288 -24 14 -123 216 -165 336
-12 33 -24 66 -28 71 -3 6 -9 28 -13 50 -4 22 -10 45 -15 50 -8 10 -23 81 -41
190 -5 33 -14 89 -20 125 -14 86 -5 430 14 545 21 125 36 197 46 220 5 11 19
54 31 95 13 41 27 79 31 85 5 5 9 15 9 22 0 7 16 46 35 87 19 41 35 80 35 86
0 5 5 10 10 10 6 0 10 5 10 11 0 17 113 201 169 274 80 106 170 205 262 288
96 86 213 177 228 177 5 0 11 4 13 8 7 19 225 138 348 190 19 8 42 18 50 22 9
4 31 11 50 15 19 4 41 11 50 16 33 18 195 58 220 55 13 -1 15 -105 18 -858z
m867 846 c22 -4 45 -10 50 -14 6 -4 27 -11 49 -14 21 -4 46 -11 55 -16 9 -4
39 -16 66 -25 168 -58 351 -157 515 -279 121 -90 328 -294 381 -376 9 -14 29
-38 43 -55 34 -39 154 -241 193 -325 81 -174 111 -263 149 -445 31 -147 36
-207 37 -425 0 -245 -4 -277 -62 -530 -10 -45 -57 -182 -83 -240 -11 -25 -26
-61 -35 -80 -24 -58 -74 -154 -89 -175 -13 -18 -23 -10 -182 147 -92 91 -223
221 -292 288 -300 293 -731 713 -802 782 l-78 75 0 855 c0 470 3 858 7 861 4
4 14 5 22 3 9 -3 34 -8 56 -12z m6 -2860 c177 -181 417 -425 567 -577 l157
-158 -35 -29 c-19 -16 -41 -30 -47 -30 -7 0 -13 -3 -13 -8 0 -4 -21 -18 -47
-32 -27 -13 -50 -27 -53 -30 -7 -7 -122 -63 -185 -90 -27 -12 -64 -28 -82 -36
-17 -8 -36 -14 -42 -14 -6 0 -19 -4 -29 -9 -9 -5 -39 -16 -67 -24 -27 -8 -83
-25 -123 -37 -44 -13 -77 -19 -83 -13 -6 6 -15 1037 -9 1166 0 13 7 8 91 -79z
m-862 -94 c-4 -85 -8 -346 -8 -579 l-1 -424 -52 7 c-28 4 -59 11 -69 17 -10 5
-28 9 -41 9 -13 0 -36 7 -51 15 -15 8 -43 17 -63 21 -19 3 -37 10 -40 15 -3 5
-12 9 -20 9 -32 0 -189 76 -329 159 -116 69 -145 90 -145 105 0 16 813 817
820 809 4 -4 4 -78 -1 -163z"/>
<path d="M3503 5979 c7 -48 38 -129 48 -129 16 0 9 70 -11 110 -27 54 -44 62
-37 19z"/>
<path d="M3636 5966 c-9 -19 -16 -53 -16 -76 0 -29 -6 -47 -17 -56 -16 -12
-16 -13 -1 -14 9 0 19 6 22 13 3 8 8 7 16 -5 6 -10 21 -18 33 -18 27 0 157 48
175 65 18 16 4 45 -22 45 -31 0 -105 -28 -138 -52 -16 -11 -32 -17 -35 -14 -3
3 2 32 12 65 16 55 15 81 -4 81 -5 0 -16 -15 -25 -34z"/>
<path d="M3380 5838 c0 -7 -5 -20 -10 -28 -8 -12 -12 -11 -30 8 -41 44 -56 24
-34 -49 8 -30 22 -79 31 -109 24 -87 32 -102 50 -98 32 6 48 197 22 265 -9 24
-29 32 -29 11z"/>
<path d="M3476 5758 c-23 -32 -20 -43 16 -73 22 -19 40 -26 60 -23 22 4 28 1
28 -15 0 -13 -5 -17 -15 -14 -21 9 -28 -9 -13 -32 16 -26 -1 -46 -52 -58 -26
-7 -36 -15 -38 -32 -2 -13 -12 -26 -23 -28 -25 -7 -35 -47 -19 -81 13 -29 19
-22 -90 -113 l-42 -36 45 -29 c26 -16 46 -33 47 -38 0 -4 -20 -28 -45 -53 -25
-24 -45 -46 -45 -49 0 -3 10 -18 22 -35 21 -27 21 -30 5 -46 -15 -16 -18 -16
-35 0 -26 23 -35 21 -60 -13 -26 -35 -27 -46 -7 -54 13 -5 13 -9 3 -26 -18
-28 0 -44 35 -31 27 10 27 10 27 -31 0 -38 -1 -40 -14 -23 -13 18 -15 18 -40
1 -36 -23 -28 -42 14 -38 30 3 32 2 21 -12 -8 -9 -22 -16 -33 -16 -13 0 -18
-6 -16 -17 2 -14 19 -20 77 -28 41 -5 73 -14 73 -20 -1 -8 -75 -39 -129 -52
-25 -6 -68 -49 -56 -55 27 -15 273 -69 283 -63 19 12 10 45 -14 57 -36 16 -40
37 -10 50 20 9 24 18 22 42 l-3 31 68 6 c37 3 73 11 80 18 30 30 -47 78 -144
88 -33 3 -62 10 -65 14 -7 12 19 49 34 49 25 0 154 83 162 104 11 31 1 46 -29
46 -20 0 -31 7 -39 25 -12 27 -34 31 -76 15 -44 -16 -34 -5 66 80 30 25 49 32
95 36 95 8 103 12 103 39 0 28 -12 35 -104 56 -33 8 -61 19 -63 24 -3 10 79
58 100 58 7 0 29 -3 50 -7 32 -6 37 -4 37 11 0 17 -60 83 -75 83 -4 0 -20 11
-36 24 l-28 24 52 7 c56 7 100 30 95 47 -3 7 -20 17 -39 23 -49 17 -47 49 4
53 39 3 44 11 27 43 -9 16 -22 19 -75 19 -63 0 -65 1 -65 26 0 46 -17 64 -60
64 -29 0 -43 -6 -54 -22z m-50 -473 c-11 -8 -22 -12 -25 -9 -6 6 19 24 34 24
6 -1 1 -7 -9 -15z"/>
<path d="M3671 5750 c18 -27 199 -104 212 -91 28 28 -43 85 -119 95 -27 4 -62
9 -79 13 -28 5 -29 5 -14 -17z"/>
<path d="M3115 5710 c-8 -13 4 -50 16 -50 5 0 9 -15 9 -33 0 -18 7 -59 15 -90
8 -32 16 -83 17 -114 3 -48 0 -58 -14 -61 -12 -2 -18 3 -18 15 -1 27 -49 105
-103 167 -38 44 -54 56 -78 56 -55 0 -40 -32 108 -232 93 -125 117 -148 137
-128 6 6 16 4 28 -7 16 -14 18 -14 18 0 0 8 6 22 13 29 7 7 21 35 30 62 18 52
15 61 -24 96 -11 10 -19 39 -23 84 -7 74 -8 73 47 51 30 -13 19 20 -24 69 -23
26 -63 58 -90 71 -55 28 -56 29 -64 15z m95 -426 c0 -16 -16 -19 -25 -4 -8 13
4 32 16 25 5 -4 9 -13 9 -21z"/>
<path d="M2900 5454 c0 -14 7 -42 16 -62 30 -71 46 -107 55 -124 5 -10 9 -28
9 -40 0 -21 -2 -20 -29 10 -40 43 -71 43 -71 1 0 -34 2 -34 -97 -13 -26 5 -34
2 -39 -11 -9 -23 42 -74 143 -142 96 -64 92 -60 135 -144 18 -36 50 -85 71
-109 l37 -44 0 38 c0 29 -5 39 -19 43 -27 7 -42 141 -17 155 21 12 21 88 0
159 -22 76 -85 219 -95 219 -5 0 -9 6 -9 13 0 17 -58 77 -76 77 -8 0 -14 -10
-14 -26z"/>
<path d="M3680 5110 c-11 -11 -20 -28 -20 -38 0 -11 9 -27 20 -37 19 -17 21
-17 40 0 14 13 29 16 55 12 50 -8 57 15 16 53 -37 36 -81 40 -111 10z"/>
<path d="M2792 4958 c6 -16 159 -137 175 -137 7 -1 16 -7 20 -13 4 -7 18 -19
31 -26 47 -26 10 41 -61 108 -58 56 -177 104 -165 68z"/>
<path d="M2846 4811 c-6 -9 25 -40 69 -67 44 -27 81 -64 63 -64 -8 0 -19 5
-24 10 -6 6 -44 10 -90 8 -113 -4 -107 -28 15 -64 11 -4 9 -8 -7 -20 -25 -18
-29 -42 -7 -50 19 -8 148 24 172 41 15 11 16 17 7 33 -7 11 -8 24 -3 33 6 11
-5 30 -37 67 -25 29 -51 52 -59 52 -7 0 -18 7 -25 15 -13 16 -65 21 -74 6z"/>
<path d="M3726 4784 c-24 -23 -21 -109 4 -134 31 -31 59 -26 76 15 18 45 18
80 -2 110 -19 29 -55 33 -78 9z"/>
<path d="M3088 4638 c-9 -22 4 -121 13 -106 11 17 11 89 0 106 -7 11 -9 11
-13 0z"/>
<path d="M5175 5781 c-89 -25 -164 -95 -190 -177 -32 -101 -1 -192 99 -287 58
-56 59 -60 41 -73 -98 -68 -127 -118 -128 -220 0 -85 26 -146 89 -204 90 -83
180 -106 279 -71 59 21 145 91 145 117 0 7 10 16 21 19 17 6 27 0 48 -26 71
-92 144 -132 240 -132 87 1 141 24 195 84 55 62 70 104 63 183 -7 87 -38 149
-104 211 l-56 53 30 15 c39 20 89 78 108 124 8 19 15 65 15 102 0 110 -62 209
-162 261 -52 27 -185 28 -231 3 -65 -36 -106 -75 -127 -118 -12 -25 -26 -45
-31 -45 -5 0 -17 17 -28 38 -24 47 -75 98 -122 122 -42 22 -150 33 -194 21z
m184 -139 c14 -10 33 -32 42 -48 19 -32 25 -99 9 -109 -15 -9 -12 -36 7 -57
21 -24 26 -23 65 12 40 37 58 37 97 4 44 -36 62 -27 55 29 -8 57 22 116 78
157 34 25 51 30 99 30 97 0 149 -48 149 -136 0 -62 -32 -110 -99 -148 -27 -15
-46 -18 -97 -13 -77 7 -91 -5 -46 -43 18 -15 32 -31 32 -36 0 -5 -16 -26 -35
-47 -19 -21 -35 -41 -35 -45 0 -3 12 -18 27 -34 24 -25 30 -27 83 -21 68 7
118 -7 151 -43 33 -35 34 -125 1 -171 -62 -88 -192 -100 -269 -26 -24 22 -33
63 -27 121 5 48 3 61 -14 82 l-20 24 -41 -37 c-23 -20 -46 -37 -52 -37 -6 0
-27 16 -46 35 -48 48 -57 45 -49 -15 4 -28 4 -66 1 -84 -10 -48 -61 -101 -121
-122 -50 -17 -53 -17 -95 1 -89 38 -120 91 -98 165 24 79 87 120 184 122 76 1
82 12 35 67 l-29 34 29 34 c35 40 36 44 11 74 -17 21 -22 22 -45 11 -37 -17
-69 -15 -113 5 -85 39 -116 105 -84 178 44 99 182 145 260 87z"/>
<path d="M7800 6009 c-14 -6 -45 -15 -70 -20 -66 -14 -138 -34 -145 -41 -7 -7
34 -78 46 -78 4 0 25 12 46 26 21 14 47 30 58 35 57 27 116 70 109 80 -6 11
-12 11 -44 -2z"/>
<path d="M8050 4800 c-36 -4 -104 -8 -152 -9 -78 -1 -89 -3 -102 -23 -21 -30
-20 -51 4 -73 17 -16 31 -17 112 -11 51 3 143 9 203 12 140 7 149 9 162 37 8
17 7 30 -3 50 -14 26 -18 27 -87 25 -40 0 -101 -4 -137 -8z"/>
<path d="M970 4295 c-30 -8 -72 -17 -92 -20 -21 -3 -38 -10 -38 -16 0 -18 49
-28 142 -31 101 -3 108 1 94 58 -7 28 -23 29 -106 9z"/>
<path d="M3097 1278 c-117 -242 -119 -246 -112 -268 3 -11 13 -20 20 -20 18 0
219 406 211 426 -3 8 -14 14 -25 14 -16 0 -36 -32 -94 -152z"/>
</g>
</svg>
